<?xml version="1.0" encoding="UTF-8"?>
<svg id="Calque_1" xmlns="http://www.w3.org/2000/svg" version="1.1" viewBox="0 0 2031.7 1829.7">
  <!-- Generator: Adobe Illustrator 29.8.7, SVG Export Plug-In . SVG Version: 2.1.1 Build 1)  -->
  <defs>
    <style>
      .st0 {
        fill: #0021b9;
      }

      .st1 {
        fill: #dc216e;
      }
    </style>
  </defs>
  <path class="st0" d="M687.5,354.3C651.7,887.1,766.3,1015.5-.3,1042c766.6,26.6,652,155.1,687.7,687.7,35.7-532.6-78.9-661.1,687.7-687.7-766.6-26.6-652-155-687.7-687.7h0Z"/>
  <path class="st1" d="M1256.8,146.2c-19.4,288.8,42.8,358.4-372.9,372.8,415.6,14.4,353.5,84.1,372.9,372.8,19.4-288.7-42.8-358.4,372.9-372.8-415.6-14.4-353.5-84-372.9-372.8h0Z"/>
  <path class="st1" d="M1781.4,654.5c-12.3,183.8,27.2,228.1-237.3,237.3,264.5,9.2,225,53.5,237.3,237.3,12.3-183.8-27.2-228.1,237.3-237.3-264.5-9.2-225-53.5-237.3-237.3h0Z"/>
</svg>